<svg fill="#ffffff" viewBox="0 0 24 24" id="send-alt" data-name="Flat Line" xmlns="http://www.w3.org/2000/svg" class="icon flat-line" stroke="#ffffff"><g id="SVGRepo_bgCarrier" stroke-width="0"></g><g id="SVGRepo_tracerCarrier" stroke-linecap="round" stroke-linejoin="round" stroke="#CCCCCC" stroke-width="0.24000000000000005"></g><g id="SVGRepo_iconCarrier"><path id="secondary" d="M3.69,8.75,19.61,3.06a1,1,0,0,1,1.33,1.33L15.25,20.31a1,1,0,0,1-1.95,0l-2.51-6.52a1,1,0,0,0-.6-.6L3.67,10.7A1,1,0,0,1,3.69,8.75Z" style="fill: #2ca9bc; stroke-width: 2;"></path><path id="primary" d="M10.62,13.38l3-3m-9.9.27,6.52,2.51a1,1,0,0,1,.6.6l2.51,6.52a1,1,0,0,0,1.95,0L20.94,4.39a1,1,0,0,0-1.33-1.33L3.69,8.75A1,1,0,0,0,3.67,10.7Z" style="fill: none; stroke: #ffffff; stroke-linecap: round; stroke-linejoin: round; stroke-width: 2;"></path></g></svg>
